<svg width="146" height="147" viewBox="0 0 146 147" fill="none" xmlns="http://www.w3.org/2000/svg">
<g clip-path="url(#clip0_3_310)">
<path d="M133.833 67.9041V73.5007C133.826 86.619 129.578 99.3833 121.723 109.89C113.869 120.397 102.828 128.083 90.2484 131.803C77.6685 135.522 64.2233 135.076 51.918 130.529C39.6127 125.983 29.1066 117.581 21.9666 106.576C14.8267 95.5713 11.4354 82.5531 12.2985 69.4633C13.1616 56.3735 18.233 43.9134 26.7562 33.9412C35.2794 23.9691 46.7977 17.0193 59.5934 14.1283C72.3891 11.2373 85.7766 12.5599 97.7592 17.8991" stroke="#037DD6" stroke-width="12.1667" stroke-linecap="round" stroke-linejoin="round"/>
<path d="M133.833 24.8333L73 85.7274L54.75 67.4774" stroke="#037DD6" stroke-width="12.1667" stroke-linecap="round" stroke-linejoin="round"/>
</g>
<defs>
<clipPath id="clip0_3_310">
<rect width="146" height="146" fill="white" transform="translate(0 0.5)"/>
</clipPath>
</defs>
</svg>
